<svg xmlns="http://www.w3.org/2000/svg" viewBox="0 0 30 30"><defs><style>.cls-1{fill:#fff;}</style></defs><title>social_icons</title><g id="icons"><path class="cls-1" d="M30,15c0-2.55,0-5.1,0-7.65a7.06,7.06,0,0,0-2-4.92A7.24,7.24,0,0,0,22.47,0H7.56A7.87,7.87,0,0,0,4.77.53,7.42,7.42,0,0,0,0,7.3Q0,15,0,22.69a6.94,6.94,0,0,0,1.16,3.85A7.31,7.31,0,0,0,7.6,30c5,0,10,0,15,0A7.06,7.06,0,0,0,27,28.49a7.23,7.23,0,0,0,3-6C30,20,30,17.5,30,15Zm-2.1,7.56a5.34,5.34,0,0,1-5.34,5.33H7.46a5.35,5.35,0,0,1-5.34-5.33c0-1.26,0-2.51,0-3.78V15c0-2.5,0-5,0-7.49A5.33,5.33,0,0,1,6.29,2.26a7.48,7.48,0,0,1,1.17-.14c5,0,10.06,0,15.08,0a5.34,5.34,0,0,1,5.34,5.33C27.88,12.48,27.89,17.52,27.88,22.55Z"/><path class="cls-1" d="M15,7.05a7.95,7.95,0,1,0,8,8A7.94,7.94,0,0,0,15,7.05Zm0,13.79A5.84,5.84,0,1,1,20.84,15,5.84,5.84,0,0,1,15,20.84Z"/><path class="cls-1" d="M25.31,6.53A1.82,1.82,0,0,1,23.5,8.35a1.83,1.83,0,1,1,0-3.65A1.8,1.8,0,0,1,25.31,6.53Z"/></g></svg>