<svg xmlns="http://www.w3.org/2000/svg" viewBox="0 0 30 30"><defs><style>.cls-1{fill:#fff;}</style></defs><title>social_icons</title><g id="icons"><path class="cls-1" d="M30,30H23.84a.44.44,0,0,1-.05-.29c0-3.32,0-6.65,0-10a9.09,9.09,0,0,0-.3-2.59A2.73,2.73,0,0,0,22,15.22,3.36,3.36,0,0,0,20.65,15a4.53,4.53,0,0,0-1.67.26,3,3,0,0,0-1.82,2.08,8.43,8.43,0,0,0-.33,2.55v9.85a.41.41,0,0,1,0,.26H10.63V10h5.94V12.7c.11,0,.12,0,.14-.08A6.15,6.15,0,0,1,20,9.92a7.43,7.43,0,0,1,2.92-.42,9.63,9.63,0,0,1,2.39.33,5.47,5.47,0,0,1,3.56,2.84,10.21,10.21,0,0,1,1,3.59A32,32,0,0,1,30,19.51V29.69A.45.45,0,0,1,30,30Z"/><path class="cls-1" d="M.53,10H6.68V30H.53Z"/><path class="cls-1" d="M3.6,7.24a3.6,3.6,0,1,1,3.61-3.6A3.6,3.6,0,0,1,3.6,7.24Z"/></g></svg>