<svg id="Layer_1" data-name="Layer 1" xmlns="http://www.w3.org/2000/svg" viewBox="0 0 100.01 102.7"><defs><style>.cls-1{fill:#fff;}</style></defs><title>Artboard 1 copy</title><path class="cls-1" d="M56.23,83.06c0-2.1,0-4.21,0-6.31a4.79,4.79,0,0,0-1.86-3.92,5.58,5.58,0,0,0-3-1.17,10,10,0,0,0-3.68.25,5.11,5.11,0,0,0-3.71,4.82c0,4.18,0,8.37,0,12.55a2.65,2.65,0,0,1-.1.85.76.76,0,0,1-1,.57,41.39,41.39,0,0,1-8.5-2.55,40.85,40.85,0,0,1-9.25-5.51,39.47,39.47,0,0,1-6.41-6.38,40,40,0,0,1-7.92-16.72A41.38,41.38,0,0,1,10,48.17,38.39,38.39,0,0,1,12.47,37,40.26,40.26,0,0,1,38.34,12.72a40.36,40.36,0,0,1,7-1.45A38.68,38.68,0,0,1,51.78,11a39.79,39.79,0,0,1,21.79,7.53A40.43,40.43,0,0,1,86,33a40,40,0,0,1,3.46,9.86,41.31,41.31,0,0,1,.77,10.81,36.5,36.5,0,0,1-1.29,7.9,39.94,39.94,0,0,1-7,14,39,39,0,0,1-4.45,4.89,41.59,41.59,0,0,1-8.17,5.89,40.89,40.89,0,0,1-9.73,3.8c-.73.18-1.48.34-2.22.49s-1.1-.11-1.11-.89c0-1.87,0-3.74,0-5.6Zm-39-31.7a24.15,24.15,0,0,0,.37,5.08,32.94,32.94,0,0,0,1.82,6.67,31.28,31.28,0,0,0,6.87,10.57.84.84,0,0,0,1,.24,3,3,0,0,0,2.11-2.32c.5-2.9,1.06-5.78,1.55-8.67.32-1.89.56-3.79.85-5.68.25-1.66.51-3.31.75-5,.13-.8.23-1.61.35-2.41.07-.46.15-.51.62-.53h6.63c.6,0,.6,0,.63.61l.3,4.48c0,.45,0,.46.52.46h4c.54,0,.54,0,.56-.59.07-1.45.12-2.89.18-4.33,0-.6,0-.61.62-.62h6c1.23,0,1.22,0,1.27,1.25s.12,2.57.16,3.86c0,.36.16.44.48.44h4.1c.31,0,.5-.06.51-.42s.08-.94.11-1.41c.06-1.1.12-2.2.16-3.3,0-.31.13-.44.42-.42h7.34c.29,0,.44.09.46.4,0,.47.11.94.16,1.4.18,1.46.34,2.92.52,4.38s.4,3,.59,4.52c.13,1,.23,1.93.36,2.89.19,1.37.39,2.75.6,4.12.24,1.61.51,3.21.76,4.81a2.61,2.61,0,0,0,1.94,2.07.82.82,0,0,0,1-.25c.63-.75,1.29-1.46,1.9-2.22a32.71,32.71,0,0,0,5.55-10.19,32.84,32.84,0,0,0-17.76-40.1A33.1,33.1,0,0,0,51.37,18.3c-1.18-.06-2.36.06-3.54.09a23.47,23.47,0,0,0-3.82.48,32.21,32.21,0,0,0-11.64,4.61,33.36,33.36,0,0,0-8.17,7.46,31.71,31.71,0,0,0-5.31,9.88A30.51,30.51,0,0,0,17.26,51.36Z"/><path class="cls-1" d="M9.6,70.4c-.81.57-1.1.57-1.82.06L7,69.87a4.84,4.84,0,0,1-1.45,1.74,1.13,1.13,0,0,0-.48,1.09c0,.53-.12.59-.6.33a2.46,2.46,0,0,1-.27-.17c-.8-.5-.83-.63-.45-1.51a3,3,0,0,1,.86-1,9.57,9.57,0,0,0,1.06-1.15.5.5,0,0,0,0-.71.52.52,0,0,0-.7-.1c-.55.25-1.12.46-1.66.73a2.58,2.58,0,0,0-.53.56c-.19.19-.4.17-.5-.06-.2-.46-.37-.92-.57-1.37-.1-.23,0-.41.19-.41,1.13,0,2-.71,3-1.07.46-.17.91-.4,1.37-.6.74-.33.74-.34.6-1.2a1.26,1.26,0,0,1,0-.61.5.5,0,0,1,.35-.26c.09,0,.27.23.26.32-.1.49.23.76.48,1.1a7.87,7.87,0,0,1,.78,1.27.67.67,0,0,1-.3,1l-.27-.35a.52.52,0,0,0-.64-.17c-.27.1-.53.23-.79.35L6.14,68a3.71,3.71,0,0,0,1.64,1c.52.16,1,.31,1.58.45a1.43,1.43,0,0,1,1,.9c.1.26.11.5-.15.6-.1,0-.3-.12-.44-.22S9.68,70.52,9.6,70.4Z"/><path class="cls-1" d="M36.65,8a7.07,7.07,0,0,0,.55-1.85,1.82,1.82,0,0,0-.08-1.3A3.11,3.11,0,0,0,36.56,4c-.43-.43-.56-.43-1.12-.08-.16.1-.31.13-.41,0s-.14-.32-.09-.41c.28-.47.58-.93.9-1.37A.6.6,0,0,1,36.62,2,2.64,2.64,0,0,1,38.4,4.32a4.34,4.34,0,0,1-.14,1.48c-.24.83-.57,1.63-.85,2.45-.16.46-.28.94-.44,1.41a1.44,1.44,0,0,1-.24.48.31.31,0,0,1-.49,0,4.66,4.66,0,0,1-.39-.49,26.6,26.6,0,0,0-3.53-4.11,1,1,0,0,0-.7-.29.33.33,0,0,1-.27-.52c.36-.55.76-1.06,1.17-1.57,0-.05.38,0,.38.07.17.92.93,1.43,1.46,2.09C35.07,6.23,35.85,7.07,36.65,8Z"/><path class="cls-1" d="M57.91,3.42c.1-.66.32-1.23-.16-1.85.69-.23,1.28-.43,1.88-.61a.38.38,0,0,1,.34.1c.06.08.07.3,0,.35-.47.41-.42,1-.52,1.52-.29,1.55-.53,3.1-.77,4.65a4,4,0,0,0,.08.76c0,.49-.12.59-.59.43-.22-.07-.46-.08-.68-.14s-.37-.09-.39-.17c-.1-.35-.28-.29-.52-.19A1.49,1.49,0,0,1,55,8.15a2.52,2.52,0,0,1-1-1.86,2.49,2.49,0,0,1,1-2.21l.45-.32A2.11,2.11,0,0,1,57.91,3.42Zm-.34,1.82c.09-.33-.26-.56-.53-.85a.92.92,0,0,0-1.59.28,1.69,1.69,0,0,0,.16,1.83A1.16,1.16,0,0,0,57,7a.6.6,0,0,0,.37-.34C57.43,6.26,57.48,5.82,57.57,5.24Z"/><path class="cls-1" d="M61.49,94.19l-1.19.34a10.11,10.11,0,0,1-1.43.4,1.09,1.09,0,0,1-1.26-.7c0-.18,0-.34.13-.4a.43.43,0,0,1,.33.1c.18.12.34.38.52.39a1.31,1.31,0,0,0,.72-.25c.42-.27.81-.59,1.21-.87a2.23,2.23,0,0,1,1.73-.39,1.84,1.84,0,0,1,.71.29.33.33,0,0,1,.09.54,1.23,1.23,0,0,0-.15,1.25c.18.74.31,1.49.53,2.22a12.55,12.55,0,0,0,.65,1.67,1.83,1.83,0,0,1-.79,2.48,5,5,0,0,1-1.41.47,2.13,2.13,0,0,1-2-1.07,2.47,2.47,0,0,1-.25-1.75c.12-.4.22-.81.32-1.22s.25-1.08-.25-1.54c-.06-.06,0-.29,0-.4s.24,0,.35,0a.73.73,0,0,1,.55.69,8.75,8.75,0,0,1-.08,1.25c-.08.49-.24,1-.32,1.45a1.53,1.53,0,0,0,1,1.8,1.26,1.26,0,0,0,1.51-.68,1,1,0,0,0-.08-.73,8.57,8.57,0,0,1-1-3.22c-.09-.44-.07-.9-.65-1-.18-.05-.16-.26,0-.4s.31-.35.47-.53Z"/><path class="cls-1" d="M84,82.08a5,5,0,0,1,.1-.78,1.26,1.26,0,0,1,.94-1,.49.49,0,0,0,.43-.48,1.74,1.74,0,0,1,1.3-1.6l.89-.31a.23.23,0,0,1,.35.19,3.21,3.21,0,0,1,0,.69c-.07.63-.16,1.25-.22,1.87,0,.16.06.42.16.46a.69.69,0,0,0,.51-.11,1.18,1.18,0,0,0,.58-1.2A1.82,1.82,0,0,1,89,79.3c0-.17.17-.29.35-.18a1.18,1.18,0,0,1,.39.38,2.06,2.06,0,0,1-.41,2.64c-.18.15-.37.24-.45.5s-.38.34-.65.33-.43.13-.42.43v.08c-.13,1.06-.51,1.41-1.58,1.4a2,2,0,0,1-1.84-1.13A3.45,3.45,0,0,1,84,82.08ZM86,81.43l-.41.17-.45.13c-.41.14-.54.4-.34.78a2,2,0,0,0,.44.55,1.66,1.66,0,0,0,1.63.21c.41-.22.45-.52.11-.84S86.33,81.81,86,81.43Zm1.12-.67c0-.34.11-.61.13-.88,0-.11-.09-.32-.13-.32a2.59,2.59,0,0,0-.73.12s-.08.24,0,.34A1.06,1.06,0,0,0,87.08,80.76Z"/><path class="cls-1" d="M96.92,67.55l-.48,1.51a2.38,2.38,0,0,1-.26,0l-2.33-.93L93.7,68c-.26,0-.61-.12-.68.17s.13.52.27.75.27.14.41.18a7.45,7.45,0,0,0,2.26.62.21.21,0,0,1,.21.33,2.09,2.09,0,0,0-.34.94c0,.28-.29.37-.53.2a12,12,0,0,0-2.49-1,.45.45,0,0,0-.6.2c-.23.3-.4.27-.55-.07s-.17-.55-.27-.82,0-.34.19-.45.09,0,.14-.07c.22-.11.57-.18.64-.36s-.11-.49-.18-.74c-.21-.73-.15-.89.59-1.18.34-.13.5-.27.32-.63a.79.79,0,0,1-.08-.3c0-.34-.4-.71-.06-1a1.6,1.6,0,0,1,1.64-.49c.55.18,1.1.35,1.64.54.31.1.59.22.86-.1.12-.15.3-.09.36.09.14.39.36.8.09,1.2a1.24,1.24,0,0,1-1.32.26l-1.55-.57a1.67,1.67,0,0,0-.45-.13c-.35,0-.49.16-.44.52a.77.77,0,0,0,.65.76c.45.12.88.33,1.33.46S96.47,67.48,96.92,67.55Z"/><path class="cls-1" d="M40.23,94.21c.64-.18,1.14-.34,1.64-.46a.71.71,0,0,1,.45.07c.08,0,.16.27.13.3-.63.61-.51,1.46-.69,2.2-.23.92-.34,1.86-.54,2.78a2.24,2.24,0,0,0,0,1.15c.08.29-.12.46-.39.41l-.92-.17h-.07c-.29,0-.23-.51-.59-.42s-.51.11-.77.15c-1,.15-2-1.31-1.92-2.1a2,2,0,0,1,.79-1.63,7.5,7.5,0,0,1,1.73-.9,4,4,0,0,1,1.35.1A1.32,1.32,0,0,0,40.23,94.21ZM40,97.66a1.3,1.3,0,0,0-1-1.27A1,1,0,0,0,38,97a1.53,1.53,0,0,0,1.17,2c.41,0,.59,0,.7-.43S40,97.86,40,97.66Z"/><path class="cls-1" d="M44.18,7.72c-.29.23-.57.43-.82.66a1,1,0,0,1-1.11.18,2.33,2.33,0,0,1-1.48-3,3.9,3.9,0,0,1,1.82-2.28,1.36,1.36,0,0,1,1.35,0,.85.85,0,0,0,1.19-.12c0-.06.26-.08.28,0a1.2,1.2,0,0,1,.09.35.21.21,0,0,1,0,.07c-.67.84-.33,1.75-.2,2.65.06.44.23.8.74.87.1,0,.18.1.34.2-.36.34-.66.65-1,.93a.49.49,0,0,1-.65,0C44.54,8,44.39,7.9,44.18,7.72Zm-.34-2.78-1-.5c-.37-.17-.62-.1-.76.28a2.47,2.47,0,0,0-.13,1.07,1.73,1.73,0,0,0,1.18,1.37c.5.2.85-.15.8-.66S43.85,5.48,43.84,4.94Z"/><path class="cls-1" d="M14.6,81.36l1.17.49a.87.87,0,0,1,.56.87c0,.26,0,.52,0,.78A1.49,1.49,0,0,1,14.85,85a7.46,7.46,0,0,1-3-.52.94.94,0,0,1-.57-1.1,2.55,2.55,0,0,1,.75-1.6c.74-.66,1.46-1.36,2.18-2a1.18,1.18,0,0,0,.52-.84c0-.21.13-.35.38-.25.46.18.93.34,1.39.54.11.06.18.24.26.36a4,4,0,0,1-.34.23,2.94,2.94,0,0,0-.61.32C15.41,80.51,15,80.91,14.6,81.36Zm-1,3a1.39,1.39,0,0,0,1.22-2c-.2-.53-.68-.6-1.1-.21a7,7,0,0,0-.72.72A.94.94,0,0,0,12.9,84C13,84.21,13.36,84.26,13.6,84.38Z"/><path class="cls-1" d="M12.36,76.31l-.74.23c-.22.06-.37.18-.36.43a.81.81,0,0,1,0,.16,2.23,2.23,0,0,1-1.53,2,2.63,2.63,0,0,1-2.79-.77c-.21-.23-.38-.36-.66-.22s-.59,0-.75-.32a1.92,1.92,0,0,0-.17-.26s.07-.11.1-.11a1.22,1.22,0,0,0,1.17-1.26A1.6,1.6,0,0,1,8,74.81a2.56,2.56,0,0,1,2.81.65c.15.16.27.29.53.25C12,75.6,12,75.61,12.36,76.31ZM8,77.64c0,.18.06.28.09.38a.78.78,0,0,0,.8.5c.29,0,.46-.2.56-.46s.21-.56.37-1Zm0-1.16.14.12c.38-.1.76-.18,1.12-.31.15-.05.36-.2.37-.31a.66.66,0,0,0-.26-.45.69.69,0,0,0-1,.12A5.73,5.73,0,0,0,8,76.48Z"/><path class="cls-1" d="M91.63,26.94c.42.09,1,.18,1.55.33a1.9,1.9,0,0,1,1.17,2.41,3.81,3.81,0,0,1-3.17,2.72A4,4,0,0,1,89,32.08,1.85,1.85,0,0,1,88,30,3.73,3.73,0,0,1,91.63,26.94Zm-1.26,4.94a3.06,3.06,0,0,0,.81-.25A3.59,3.59,0,0,0,93,28.92a1.28,1.28,0,0,0-.52-1.25,1.16,1.16,0,0,0-1.32,0,3.91,3.91,0,0,0-2,3C89,31.28,89.63,31.83,90.37,31.88Z"/><path class="cls-1" d="M3.69,31.65,6.26,32.7C7,33,7,33,7.36,32.37c.31.14.66.31.7.67s.39.57.74.67a2.94,2.94,0,0,0,.55.07c0,.37-.07.7-.07,1s.05.6.08.9l-.15,0c-.09-.11-.16-.23-.25-.33A2.47,2.47,0,0,0,8.47,35c-.78-.45-.87-.41-1.23.45-.29.69-.59,1.38-.88,2.08-.76-.57-1.48-1.08-2.17-1.64a3.13,3.13,0,0,1-1.14-2.65A7.78,7.78,0,0,1,5.65,36c.24-.53.43-1,.64-1.43a.4.4,0,0,0-.24-.63,12.43,12.43,0,0,0-1.52-.62,1.07,1.07,0,0,1-.84-1.07C3.68,32.07,3.69,31.92,3.69,31.65Z"/><path class="cls-1" d="M73,91.06c.28-.42.45-.68.61-1a1,1,0,0,1,.7-.46,1.94,1.94,0,0,1,2.18,1.84,5.89,5.89,0,0,1-.89,2.82c-.2.39-.6.48-1.11.31A2.8,2.8,0,0,1,73,93.4c-.48-.79-1-1.57-1.47-2.33a2.24,2.24,0,0,0-.64-.66c-.27-.2-.32-.38-.15-.66s.42-.73.66-1.07.45-.17.47.07C71.92,89.63,72.59,90.17,73,91.06Zm1.26,0a.67.67,0,0,0-.7.36c-.16.27,0,.44.16.63s.29.5.46.73a1.28,1.28,0,0,0,.39.38c.5.23,1,.26,1.11-.56A1.4,1.4,0,0,0,74.26,91Z"/><path class="cls-1" d="M10.29,26.94c.34.18.63.39.63.72,0,.65.44.75.91.86l.26.05-.27,1.92a2.44,2.44,0,0,0-1.58-1.29L8.68,31.91c-.79-.82-1.58-1.55-2.26-2.35A2.64,2.64,0,0,1,6,27.25a8.27,8.27,0,0,1,2.25,3l1-1.63a3,3,0,0,0-.42-.33,14.86,14.86,0,0,0-1.51-.84.89.89,0,0,1-.58-1c0-.21,0-.41,0-.72l2,1.1.62.35C9.83,27.49,9.84,27.49,10.29,26.94Z"/><path class="cls-1" d="M33.23,97.83c-.41.4-.89.29-1.31.37s-.38-.21-.5-.43c-.25-.45-.29-.46-.79-.39h-.08c-.38.1-.76.23-1.11-.09a2.27,2.27,0,0,1-.81-1.4A1.84,1.84,0,0,1,29.41,94a3.54,3.54,0,0,1,2.64-.74,1.13,1.13,0,0,1,.86.49,1,1,0,0,0,1.06.49c.1,0,.22.09.32.14s-.08.27-.16.31c-.9.38-1,1.27-1.35,2C32.57,97.18,33,97.47,33.23,97.83ZM32.16,95c-.08-.07-.2-.17-.31-.28s-.22-.29-.34-.43c-.31-.41-.6-.44-1-.11a1.6,1.6,0,0,0,0,2.24c.36.32.7.24.92-.2S31.91,95.43,32.16,95Z"/><path class="cls-1" d="M21,88.3c.48,1,.46,1.54-.16,2.11a1.69,1.69,0,0,1-.88.45,3.07,3.07,0,0,1-3-1.59,1.54,1.54,0,0,1-.16-.89c.09-.51.43-.66,1.12-.58a6.22,6.22,0,0,1,.15-.75,1.53,1.53,0,0,1,2.5-.76,2.65,2.65,0,0,1,.54.57,1.7,1.7,0,0,0,.8.72c.21.08.19.29,0,.4S21.26,88.18,21,88.3ZM18.89,90c.61,0,1-.28.91-.79a.67.67,0,0,0-.26-.42c-.06,0-.3.07-.37.17-.18.31-.36.23-.56,0a2.37,2.37,0,0,1-.27-.28c-.18-.2-.36-.16-.55,0a.39.39,0,0,0-.1.55A1.29,1.29,0,0,0,18.89,90Zm1.36-2c-.23-.43-.45-.84-.68-1.24,0-.07-.17-.16-.24-.14a.52.52,0,0,0-.3.22.55.55,0,0,0,0,.38A1,1,0,0,0,20.25,87.94Z"/><path class="cls-1" d="M60.81,7.66a3,3,0,0,1,1.68-2.8,1.91,1.91,0,0,1,2.17.36c.29.34.64.63.93,1s.2.48-.16.6c-.67.21-1.36.38-2,.56-.3.08-.62.14-.91.23s-.26.23-.12.44a1.44,1.44,0,0,0,1.87.48c.23-.1.48-.38.7-.1s0,.57-.2.76a2.52,2.52,0,0,1-1.62.88c-1.39.1-2-.67-2.27-1.9A3.87,3.87,0,0,1,60.81,7.66Zm1.07-.78a5,5,0,0,0,1.9-.4,5.8,5.8,0,0,0-.3-.61c-.31-.54-.72-.58-1.1-.08A6.71,6.71,0,0,0,61.88,6.88Z"/><path class="cls-1" d="M69.07,96.21c0-.15,0-.18,0-.21a9.42,9.42,0,0,0-1.23-2.43c-.24-.25-.21-.35.12-.48s.63-.25.93-.38.47,0,.46.22a6.26,6.26,0,0,0,.78,2.36c.15.39.32.63.8.53.25,0,.36.17.25.42s-.14.22-.21.33c-.42.66-.42.67-1.14.38a.38.38,0,0,0-.54.16,2,2,0,0,0-.26.39A.88.88,0,0,1,67.9,98a1.52,1.52,0,0,1-1.43-1.14,6,6,0,0,0-.45-1c-.12-.28-.2-.59-.63-.55-.17,0-.25-.2-.15-.36a9.64,9.64,0,0,1,.63-.9.43.43,0,0,1,.42-.08,1.44,1.44,0,0,1,.57.49c.2.34.29.73.46,1.08a6.4,6.4,0,0,0,.54,1,.58.58,0,0,0,.78.14A1.71,1.71,0,0,0,69.07,96.21Z"/><path class="cls-1" d="M93.76,73.35c.08.48.16.85.22,1.23s-.13.39-.35.46-.32,0-.45.08a.49.49,0,0,0-.26.31,2.27,2.27,0,0,0,.06.78.6.6,0,0,1-.32.73,1.79,1.79,0,0,1-2.12.13,9.47,9.47,0,0,0-1.17-.65c-.15-.08-.3-.21-.49,0s-.43.05-.49-.2,0-.52-.06-.78c-.09-.48.26-.69.68-.58a6.45,6.45,0,0,1,1.21.53c.35.17.66.41,1,.57a.68.68,0,0,0,1-.23.72.72,0,0,0-.35-1l-1.52-.83a1.91,1.91,0,0,1-.28-.15c-.22-.16-.68.11-.73-.26,0-.22.28-.47.41-.72s.11-.3.18-.44.32-.29.48-.08c.58.79,1.51,1,2.27,1.5C93.12,74,93.31,73.56,93.76,73.35Z"/><path class="cls-1" d="M27.21,88.63c-.24.43-.48.86-.7,1.3s-.12.47.22.61a4.84,4.84,0,0,0,.68.18c.25.08.31.26.16.48a1,1,0,0,1-.86.47,2.83,2.83,0,0,1-.7-.11.4.4,0,0,0-.52.21c-.18.32-.37.64-.53,1-.27.55-.2.78.29,1.14a1.45,1.45,0,0,1,.26.17.36.36,0,0,1,.09.27.27.27,0,0,1-.21.18c-.47,0-.94,0-1.41,0a.54.54,0,0,1-.34-.18,1.79,1.79,0,0,1-.29-1.82c.17-.32.38-.63.53-1s.53-.58.14-1a.77.77,0,0,1,.3-.46A2.22,2.22,0,0,0,25.44,89C25.86,88.27,26.38,88.18,27.21,88.63Z"/><path class="cls-1" d="M9.62,25.22a2,2,0,0,1-.1-3.48,2.2,2.2,0,0,1,2.69.6,4.43,4.43,0,0,1,.63,1.85c.06.33.12.66.2,1.06.48-.33.9-.6,1.28-.91a.89.89,0,0,0,.26-.53,6.13,6.13,0,0,0,0-.88,2.61,2.61,0,0,1,.59,2.37c0,.13-.24.27-.4.34a2.51,2.51,0,0,0-1.45,1.57c0,.1-.08.23-.16.26s-.28,0-.29-.06c-.09-.32-.14-.66-.2-1-.15-.77-.27-1.55-.46-2.31a2.37,2.37,0,0,0-.48-.88,1.11,1.11,0,0,0-1.41-.35A1.3,1.3,0,0,0,9.53,24,11,11,0,0,0,9.62,25.22Z"/><path class="cls-1" d="M86.42,25.27c.18.55.34,1,.48,1.48a.66.66,0,0,0,.63.5c.17,0,.35.07.72.15-.33.15-.5.29-.66.29A11.64,11.64,0,0,1,86,27.51c-.16,0-.31-.25-.41-.42a1.54,1.54,0,0,1-.14-.53,2.19,2.19,0,0,0-.91-1.5,3.76,3.76,0,0,1-.41-.4,2.29,2.29,0,0,1,1.29,0c.81.1,1.61.2,2.42.25a2.54,2.54,0,0,0,.85-.15,1.2,1.2,0,0,0,.81-1.15,1.43,1.43,0,0,0-.85-1.21c-.22-.08-.46-.1-.69-.16s-.28-.1-.44-.16a1.87,1.87,0,0,1,2.51-.23,2,2,0,0,1,.36,2.8,2.52,2.52,0,0,1-2.54.87Z"/><path class="cls-1" d="M50,3.37c.89-.74,1.33-.78,2.26-.18-.34.49-.67,1-1,1.47a.37.37,0,0,1-.33.13c-.08,0-.13-.19-.17-.3s0-.16,0-.23-.09-.18-.12-.17a.36.36,0,0,0-.26.13.77.77,0,0,0-.12.36c0,.84,0,1.68,0,2.52,0,.34.44.68.1.94-.17.13-.58-.06-.88-.06s-.4.1-.61.12a.43.43,0,0,1-.34-.1c-.06-.07,0-.23,0-.34a4.66,4.66,0,0,0,.23-.81c.06-.73.07-1.46.1-2.19a.72.72,0,0,0-.48-.73c-.34-.18-.34-.34-.09-.58C49,2.56,49.2,2.56,50,3.37Z"/><path class="cls-1" d="M96.25,38.4c.07-.68.13-1.29.22-1.9a.67.67,0,0,0-.28-.68,3.84,3.84,0,0,0-.63-.35A1.38,1.38,0,0,1,96,35.3a1.56,1.56,0,0,1,1.67,1,2.07,2.07,0,0,1,0,.61c0,.26,0,.52-.07.78a1.3,1.3,0,0,0,.6,1.36.79.79,0,0,1,.25.19c.1.13.06.3-.1.28a4.7,4.7,0,0,1-1-.2c-.93-.29-1.83-.64-2.77-.9a4.87,4.87,0,0,0-1.32-.15c-.64,0-.81.17-1,.78-.12.37-.22.42-.55.26a1,1,0,0,1-.16-1.6,1.64,1.64,0,0,1,.84-.37,3.61,3.61,0,0,1,2.07.31C95.09,37.93,95.69,38.17,96.25,38.4Z"/><path class="cls-1" d="M80,82.15c.11.12.25.21.25.29,0,.46.3.71.58,1,.87.88,1.74,1.75,2.62,2.62a3.48,3.48,0,0,0,1.16.92c.3.12.31.42,0,.51s-.59.48-.79.83-.39.24-.47,0A4.53,4.53,0,0,0,82,86.58c-.58-.61-1.18-1.2-1.78-1.78a2.25,2.25,0,0,0-.7-.5c-.29-.1-.37-.21-.28-.51s.25-.85.4-1.27C79.68,82.39,79.83,82.3,80,82.15Z"/><path class="cls-1" d="M89.74,34.69a3.36,3.36,0,0,0,1.77-.24c.89-.37,1.8-.7,2.71-1s.8-.3.58-1.19a10.83,10.83,0,0,1,1.7,1.11.23.23,0,0,1,0,.4,3.15,3.15,0,0,1-.75.52c-1.12.45-2.25.86-3.37,1.32a12.55,12.55,0,0,0-1.16.58Z"/><path class="cls-1" d="M2.13,39.48c-.23-.66-.44-1.25-.63-1.83a.3.3,0,0,1,.26-.41,2.43,2.43,0,0,1,.85,0c1.27.32,2.53.68,3.8,1a9.32,9.32,0,0,0,1,.14c0,.29.07.64.11,1s.37.65.13,1.06A5.28,5.28,0,0,0,7,39.9a3.89,3.89,0,0,0-.89-.3c-.86-.24-1.73-.46-2.59-.69S2.61,38.66,2.13,39.48Z"/><path class="cls-1" d="M77.73,87.26a1.51,1.51,0,0,1,1.37.61c.41.51.86,1,1.25,1.51a2,2,0,0,0,1,.82c.06,0,.09.11.17.22-.39.32-.75.65-1.14,1s-.44.19-.54-.12A9.19,9.19,0,0,0,78.24,89a.41.41,0,0,0-.54-.16,1.64,1.64,0,0,1-.5,0,4.32,4.32,0,0,1,.55-1.57Z"/><path class="cls-1" d="M3.6,53.31a.8.8,0,0,1-.86-.82.85.85,0,0,1,.81-.87.85.85,0,1,1,.05,1.69Z"/><path class="cls-1" d="M23.69,14.32a.81.81,0,1,1,0-1.61.81.81,0,1,1,0,1.61Z"/><path class="cls-1" d="M97.5,52.48a.74.74,0,0,1-.82.83.72.72,0,0,1-.79-.77.83.83,0,0,1,.77-.91A.84.84,0,0,1,97.5,52.48Z"/><path class="cls-1" d="M76.62,14.32a.75.75,0,0,1-.79-.86.73.73,0,0,1,.82-.75.85.85,0,0,1,.87.82A.86.86,0,0,1,76.62,14.32Z"/><path class="cls-1" d="M77.75,87.24a1.44,1.44,0,0,1-1.13-.61.83.83,0,0,1-.07-.89c.17-.26.44-.24.71-.23s.4.19.48.45a2.21,2.21,0,0,1,0,1.3Z"/><path class="cls-1" d="M58,36.14V34c0-1.48,0-3,0-4.42,0-.55.16-.65.67-.44a1.65,1.65,0,0,1,.42.21,3.66,3.66,0,0,0,3.54.14c.34-.14.68-.3,1-.42s.56.07.47.4a2,2,0,0,1-.46.88,6.93,6.93,0,0,1-3.28,1.79,2.08,2.08,0,0,1-.7,0c-.46-.06-.55,0-.59.47s0,.64.53.48a6.9,6.9,0,0,1,2.26-.22,2.24,2.24,0,0,1,1.37.53,5,5,0,0,1,2,3.08c.37,2.42-.14,4.54-2.21,6.09a8.72,8.72,0,0,1-2.62,1.4c-1.79.57-4-1.06-4.41-2.26A5.14,5.14,0,0,1,56,39.75c0-.27.24-.33.46-.32.6,0,1.2.08,1.8.15.09,0,.19.2.24.32a.43.43,0,0,1,0,.31c-.35.74.08,1.28.53,1.75a2,2,0,0,0,1.9.72,2.9,2.9,0,0,0,1.84-1.13,3.68,3.68,0,0,0,.87-2.63,5.19,5.19,0,0,1,0-.79,2.9,2.9,0,0,0-4.06-2.7C59.05,35.62,58.61,35.86,58,36.14Z"/><path class="cls-1" d="M36.07,36.15V33.64c0-1.37,0-2.74,0-4.11,0-.55.16-.65.67-.45a2.31,2.31,0,0,1,.35.18,3.75,3.75,0,0,0,3.75.12,7.39,7.39,0,0,1,.88-.36c.33-.1.56.07.47.39a2,2,0,0,1-.46.89,6.93,6.93,0,0,1-3.28,1.79A3.15,3.15,0,0,1,37.6,32c-.21,0-.39,0-.41.26a3.25,3.25,0,0,0,.06.76.88.88,0,0,0,.36,0,6.23,6.23,0,0,1,2-.26,2.52,2.52,0,0,1,1.69.54,4.84,4.84,0,0,1,2,3.08c.38,2.41-.12,4.54-2.2,6.09a8.72,8.72,0,0,1-2.62,1.4c-1.78.57-4-1.05-4.41-2.26A5.35,5.35,0,0,1,34,39.75c0-.27.23-.33.46-.32.6,0,1.2.08,1.8.15.09,0,.19.19.24.32a.4.4,0,0,1,0,.3c-.36.75.07,1.28.52,1.76a2,2,0,0,0,1.9.73,2.91,2.91,0,0,0,1.83-1.14,3.64,3.64,0,0,0,.88-2.62,6.94,6.94,0,0,1,0-.79,2.9,2.9,0,0,0-4.13-2.68C37.05,35.65,36.64,35.87,36.07,36.15Z"/><path class="cls-1" d="M51.43,32.87A5.19,5.19,0,0,1,48,32.09a5.43,5.43,0,0,0-1.25-.43,1.21,1.21,0,0,0-1.34.61,3.93,3.93,0,0,1-.41.57c-.08.09-.23.19-.3.16a.38.38,0,0,1-.2-.29,3.24,3.24,0,0,1,.14-1.08,4.51,4.51,0,0,1,1.69-2.21,2.5,2.5,0,0,1,2.34-.26c.58.23,1.15.51,1.73.74a5.07,5.07,0,0,0,1.13.34,2.31,2.31,0,0,0,2.1-.61,3.23,3.23,0,0,1,.84-.58.37.37,0,0,1,.56.39,1.52,1.52,0,0,1-.22.66c-.51.8-1,1.57-1.57,2.36-1,1.45-2,2.89-2.93,4.38a10.28,10.28,0,0,0-1,2.23,4.51,4.51,0,0,0-.14,1.47,1.26,1.26,0,0,0,1,1.27l.22.08c.8.27.89.54.38,1.23a2.17,2.17,0,0,1-3.64-.26,3.17,3.17,0,0,1-.41-2.19,8.36,8.36,0,0,1,1.74-3.91c.82-1.09,1.7-2.13,2.55-3.2C51.11,33.4,51.21,33.21,51.43,32.87Z"/></svg>