<svg xmlns="http://www.w3.org/2000/svg" viewBox="0 0 30 30"><defs><style>.cls-1{fill:#fff;}</style></defs><title>social_icons</title><g id="icons"><path class="cls-1" d="M22.31,26.73a4.27,4.27,0,0,0-2.94.69,9.46,9.46,0,0,1-3.71,1.51,5.88,5.88,0,0,1-3.28-.59c-.76-.37-1.48-.86-2.26-1.17a7.88,7.88,0,0,0-2-.45,13.65,13.65,0,0,0-1.56.06A2.21,2.21,0,0,1,4.28,25.1c-.15-.52-.46-.66-.93-.81a6.14,6.14,0,0,1-2.24-1.08,1.73,1.73,0,0,1,.61-3c.73-.32,1.49-.59,2.2-1a4.36,4.36,0,0,0,2-2.52.71.71,0,0,0-.28-.58c-.34-.22-.76-.32-1.12-.52a2.42,2.42,0,0,1-1.22-2.93A2.18,2.18,0,0,1,5.8,11.31c.53.06.48-.25.52-.58A22.37,22.37,0,0,1,6.88,7a8,8,0,0,1,5.27-5.38A8.29,8.29,0,0,1,21,3.47a8.36,8.36,0,0,1,2.71,6c0,.13,0,.27,0,.4,0,.41-.09.92.11,1.2s.71.12,1.09.17a2.15,2.15,0,0,1,1.94,1.67,2.37,2.37,0,0,1-1.11,2.63,8.77,8.77,0,0,1-1.24.58c-.36.14-.46.34-.31.7a4.86,4.86,0,0,0,3,3c.37.13.73.28,1.1.42a1.74,1.74,0,0,1,1.24,1.6,1.86,1.86,0,0,1-1.05,1.81c-.61.31-1.31.45-1.95.7a1.24,1.24,0,0,0-.62.46c-.72,1.69-1.25,2-3.07,2Zm-.11-1.51H23c1.11,0,1.3-.09,1.41-1.21.08-.69.48-.89,1.05-1a20,20,0,0,0,2-.54c.18-.06.3-.32.45-.49a2.12,2.12,0,0,0-.46-.39c-.63-.29-1.3-.49-1.91-.83a6.65,6.65,0,0,1-3.05-4.14c-.27-.9-.12-1.26.76-1.63.54-.22,1.1-.42,1.62-.68a.78.78,0,0,0,.45-1,.74.74,0,0,0-1-.43l-.89.2a.9.9,0,0,1-1.19-.92c0-.73-.07-1.47-.09-2.21A7.32,7.32,0,0,0,20.27,5a6.8,6.8,0,0,0-6.8-2.19A6.87,6.87,0,0,0,8.38,7.21,15,15,0,0,0,7.78,12c0,.9-.43,1.21-1.3,1-.21,0-.43-.07-.64-.13-.49-.15-1-.13-1.13.43s.15.86.61,1.06L7,15c.51.22.87.61.72,1.17a8.07,8.07,0,0,1-1.86,3.54,8.42,8.42,0,0,1-3.19,1.82c-.19.08-.33.29-.49.44.16.16.3.4.49.47a17.6,17.6,0,0,0,2,.52,1.07,1.07,0,0,1,1,1.05C5.76,25.11,6,25.32,7,25.2A6.92,6.92,0,0,1,12,26.41a4.51,4.51,0,0,0,.75.4,4,4,0,0,0,3,.5,13.67,13.67,0,0,0,2.62-1.09A5.7,5.7,0,0,1,22.2,25.22Z"/></g></svg>