<svg xmlns="http://www.w3.org/2000/svg" viewBox="0 0 30 30"><defs><style>.cls-1{fill:#fff;}</style></defs><title>social_icons</title><g id="icons"><path class="cls-1" d="M.17,24.5A12.22,12.22,0,0,0,9.06,22a6.32,6.32,0,0,1-3.48-1.25,6.14,6.14,0,0,1-2.14-2.94c.45,0,.89,0,1.33,0a8,8,0,0,0,1.28-.18,6.32,6.32,0,0,1-4-3.06,5.63,5.63,0,0,1-.75-3c.43.16.85.35,1.28.47a10.17,10.17,0,0,0,1.36.24C1.22,10,.63,7.25,2.1,4a17.56,17.56,0,0,0,12.68,6.44c0-.39-.1-.74-.11-1.09a5.89,5.89,0,0,1,2-4.82A6,6,0,0,1,22,3a5.67,5.67,0,0,1,3,1.63.37.37,0,0,0,.42.12,11.85,11.85,0,0,0,3.27-1.23l.38-.18a6.37,6.37,0,0,1-2.53,3.31A11,11,0,0,0,30,5.8,12,12,0,0,1,28.08,8c-.3.27-.61.53-.94.78a.48.48,0,0,0-.21.46,16.42,16.42,0,0,1-.64,5.17,18.29,18.29,0,0,1-1.72,4.14,17.72,17.72,0,0,1-2.94,3.84A16.3,16.3,0,0,1,16.23,26a17.68,17.68,0,0,1-6,1.25,17.4,17.4,0,0,1-4.32-.35,16.4,16.4,0,0,1-4.14-1.44L.15,24.56Z"/></g></svg>