<svg xmlns="http://www.w3.org/2000/svg" viewBox="0 0 30 30"><defs><style>.cls-1{fill:#fff;}</style></defs><title>social_icons</title><g id="icons"><path class="cls-1" d="M3,22.43a39.74,39.74,0,0,1,.25-5.23A4.68,4.68,0,0,1,4,14.88a3.88,3.88,0,0,1,3-1.23c1.84-.08,3.7-.13,5.54-.15h4.71c.83,0,1.65,0,2.48,0l1.94.07,3,.15a2.85,2.85,0,0,1,1.24.35,3.61,3.61,0,0,1,1.68,3,37.4,37.4,0,0,1,.09,8.26c-.16,1.45-.26,3.16-1.71,3.94a5,5,0,0,1-2.23.43c-2.41.08-4.81.18-7.21.2-1.63,0-3.26,0-4.88,0l-4.41-.11A4,4,0,0,1,3.9,28.46a4.78,4.78,0,0,1-.68-2.26C3.08,25,3,23.69,3,22.43Zm14.39,3.71c.15.15.28.29.42.41a1.84,1.84,0,0,0,.69.4A1.18,1.18,0,0,0,20,26.17a2.69,2.69,0,0,0,.14-.74c0-.54,0-1.08,0-1.62,0-1,0-2,0-2.95a6.81,6.81,0,0,0-.05-.78,1.72,1.72,0,0,0-.22-.73,1.08,1.08,0,0,0-1-.59,1.55,1.55,0,0,0-.93.29,3.23,3.23,0,0,0-.52.46l-.09.09v-3c0-.16,0-.33,0-.49H15.93s0,0,0,0V26.76s0,.07,0,.11h0a13.18,13.18,0,0,0,1.42,0Zm8.3-3a.53.53,0,0,0,0-.12V21.3a3.86,3.86,0,0,0-.13-1,1.89,1.89,0,0,0-1.12-1.34A2.27,2.27,0,0,0,23,18.81a2,2,0,0,0-1.57,1.51,3.72,3.72,0,0,0-.11.94c0,1,0,2.07,0,3.1a4.28,4.28,0,0,0,.12,1.07,2,2,0,0,0,1.31,1.45,2.32,2.32,0,0,0,1.11.11,2,2,0,0,0,1.79-1.82c0-.33,0-.66,0-1,0,0,0,0,0-.06a14.29,14.29,0,0,0-1.47,0c0,.05,0,.1,0,.16s0,.33,0,.5a1.6,1.6,0,0,1-.09.53.6.6,0,0,1-.3.31.75.75,0,0,1-.49,0,.66.66,0,0,1-.47-.54,2.42,2.42,0,0,1,0-.47c0-.46,0-.92,0-1.38a.53.53,0,0,1,0-.12ZM10.45,18.87V19c0,1.9,0,3.81,0,5.71,0,.34,0,.69,0,1a1.9,1.9,0,0,0,.14.7.75.75,0,0,0,.43.44,1.11,1.11,0,0,0,.6.08,1.7,1.7,0,0,0,.84-.35c.21-.15.39-.34.59-.51l.09-.08h0v.82h1.45c0-.13,0-7.92,0-8a13.94,13.94,0,0,0-1.45,0v6a.19.19,0,0,1,0,.13,2.06,2.06,0,0,1-.45.48.83.83,0,0,1-.45.17.28.28,0,0,1-.29-.19.93.93,0,0,1-.05-.29c0-.24,0-.49,0-.73v-5.6Zm-.19-2.76c-.18,0-5,0-5.09,0a15,15,0,0,0,0,1.51h1.7v8.22c0,.34,0,.69,0,1H8.51V23.77c0-2,0-4,0-5.94a1.48,1.48,0,0,1,0-.2h.86c.29,0,.58,0,.87,0Z"/><path class="cls-1" d="M12.64,0,10.78,6.69c-.08.27-.15.55-.21.82a2.06,2.06,0,0,0,0,.35V12.6H8.83s0-.09,0-.13c0-1.52,0-3,0-4.55a5.08,5.08,0,0,0-.17-1.16C8.35,5.48,8,4.22,7.57,3,7.29,2.08,7,1.2,6.72.31a.57.57,0,0,1,0-.29H8.48a.49.49,0,0,0,0,.12l.26,1,.9,3.61a.56.56,0,0,0,0,.12.31.31,0,0,0,.05-.12l1-4,.18-.8Z"/><path class="cls-1" d="M21.49,3.25H23c0,.1,0,9.16,0,9.34H21.49v-1h0l-.09.1a5.57,5.57,0,0,1-.6.59,1.93,1.93,0,0,1-1,.42,1.1,1.1,0,0,1-.77-.19.92.92,0,0,1-.31-.41,2.57,2.57,0,0,1-.14-.68c0-.21,0-.43,0-.65,0-2.46,0-4.92,0-7.37V3.27a13.17,13.17,0,0,1,1.54,0v7a3.43,3.43,0,0,0,0,.56.36.36,0,0,0,.54.31A.94.94,0,0,0,21,11a1.61,1.61,0,0,0,.46-.51.4.4,0,0,0,.07-.24c0-1.3,0-2.6,0-3.9V3.25Z"/><path class="cls-1" d="M17.27,7.93c0,.58,0,1.17,0,1.75A6.12,6.12,0,0,1,17.13,11a2.53,2.53,0,0,1-.44.94,2.11,2.11,0,0,1-1.45.82,2.28,2.28,0,0,1-1-.12A2.06,2.06,0,0,1,13,11.44a3.44,3.44,0,0,1-.29-1.37c0-.94,0-1.87,0-2.8,0-.49,0-1,0-1.46a3.61,3.61,0,0,1,.22-1.22,2.07,2.07,0,0,1,1.2-1.29,2.24,2.24,0,0,1,1.76,0,2.14,2.14,0,0,1,1.2,1.33,4.11,4.11,0,0,1,.2,1.1c0,.73,0,1.47,0,2.2Zm-1.56,0h0c0-.58,0-1.15,0-1.73q0-.32,0-.63A1.32,1.32,0,0,0,15.53,5a.65.65,0,0,0-1.1-.06,1,1,0,0,0-.13.28,2.53,2.53,0,0,0-.08.72c0,1.28,0,2.55,0,3.82,0,.15,0,.31,0,.46a1.46,1.46,0,0,0,.18.67.6.6,0,0,0,.56.31.59.59,0,0,0,.56-.34,1.82,1.82,0,0,0,.11-.3c0-.21.06-.42.07-.63Z"/><path class="cls-1" d="M17.37,25.34V20.42A1.27,1.27,0,0,1,18,20.1a.53.53,0,0,1,.65.37,1.87,1.87,0,0,1,.09.41,3.37,3.37,0,0,1,0,.44v3.22a3.29,3.29,0,0,1-.07.63.59.59,0,0,1-.91.43l-.18-.11Z"/><path class="cls-1" d="M24.2,21.9H22.79a.08.08,0,0,1,0,0c0-.29,0-.57,0-.86a1.75,1.75,0,0,1,.12-.54.66.66,0,0,1,1.19,0,1.12,1.12,0,0,1,.11.47c0,.32,0,.63,0,.94C24.21,21.87,24.2,21.89,24.2,21.9Z"/></g></svg>